<?xml version="1.0" encoding="utf-8"?>
<!-- Generator: Adobe Illustrator 20.1.0, SVG Export Plug-In . SVG Version: 6.00 Build 0)  -->
<svg version="1.1" id="Layer_1" xmlns="http://www.w3.org/2000/svg" xmlns:xlink="http://www.w3.org/1999/xlink" x="0px" y="0px"
	 viewBox="0 0 400 400" style="enable-background:new 0 0 400 400;" xml:space="preserve">
<style type="text/css">
	.st0{fill:none;}
	.st1{fill:#E54A24;}
	.st2{fill:#282F3D;}
	.st3{fill:#FFFFFF;}
</style>
<g>
	<rect class="st0" width="400" height="400"/>
	<g>
		<g>
			<g>
				<path class="st1" d="M161.4,297.7V257h9.6v40.7H161.4z"/>
				<path class="st1" d="M192.4,291.2c1.5,0,4.9-0.3,4.9-1v6.3c0,0.9-4.2,1.4-7.3,1.4c-3.4,0-5.7-0.9-7.3-2.6
					c-1.5-1.7-2.2-4.3-2.2-7.7v-13.9h-4.8v-4.6l5.1-3l2.9-6.7h6.3v7.2h7.2v7.2h-7.2v13.9c0,1.2-0.3,2.1,0.3,2.7
					C191.1,290.9,191.3,291.2,192.4,291.2z"/>
				<path class="st1" d="M211.3,257l0.4,0.9c-0.9,3.6-2.5,8.7-4.9,13.5h-6.1c1.3-7.2,2.2-9.6,2.8-14.4H211.3z"/>
				<path class="st1" d="M238.3,288.2c0,3.2-1.1,5.6-3.3,7.3c-2.2,1.7-5.5,2.5-9.9,2.5c-2.3,0-4.6-0.2-6.2-0.5
					c-1.6-0.3-2.5-0.8-4.9-1.3v-7c2.4,0.7,3.8,1.4,5.8,1.9c2,0.5,3.9,0.7,5.4,0.7c3.1,0,4.7-0.9,4.7-2.7c0-0.7-0.1-1.2-0.6-1.6
					c-0.4-0.4-1.1-0.9-2.1-1.4c-1-0.5-2.3-1.1-4-1.8c-2.4-1-4.1-1.9-5.2-2.8c-1.1-0.9-1.9-1.8-2.4-2.9c-0.5-1.1-0.8-2.5-0.8-4.1
					c0-2.8,1.1-4.9,3.2-6.4s5.2-2.3,9.1-2.3c3.7,0,7.4,0.8,10.9,2.4l-2.5,6.1c-1.5-0.7-3-1.2-4.3-1.6c-1.3-0.4-2.7-0.6-4.1-0.6
					c-2.5,0-3.7,0.7-3.7,2c0,0.8,0.4,1.4,1.2,2c0.8,0.6,2.6,1.4,5.3,2.5c2.4,1,4.2,1.9,5.3,2.7c1.1,0.9,2,1.8,2.5,2.9
					C238.1,285.3,238.3,286.6,238.3,288.2z"/>
			</g>
			<g>
				<path class="st2" d="M65.7,373.5l-15.5-54.6h-0.5c0.7,9.3,1.1,16.5,1.1,21.7v32.9H32.7v-75.8h27.2l15.8,53.8h0.4l15.5-53.8h27.3
					v75.8h-18.8v-33.2c0-1.7,0-3.6,0.1-5.8s0.3-7.3,0.7-15.5h-0.5l-15.3,54.5H65.7z"/>
				<path class="st2" d="M172.2,373.5l-3.9-7.8h-0.4c-2.7,3.4-5.5,5.7-8.3,6.9c-2.8,1.2-6.5,1.9-11,1.9c-5.5,0-9.9-1.7-13-5
					c-3.2-3.3-4.8-8-4.8-14c0-6.3,2.2-10.9,6.5-14c4.3-3.1,10.6-4.8,18.9-5.2l9.8-0.3v-0.8c0-4.8-2.4-7.3-7.1-7.3
					c-4.3,0-9.7,1.5-16.3,4.4l-5.8-13.4c6.8-3.5,15.5-5.3,25.9-5.3c7.5,0,13.3,1.9,17.5,5.6c4.1,3.7,6.2,8.9,6.2,15.6v38.5H172.2z
					 M157.2,360.2c2.4,0,4.5-0.8,6.3-2.3c1.7-1.6,2.6-3.6,2.6-6.1v-4.6l-4.7,0.2c-6.7,0.2-10,2.7-10,7.4
					C151.5,358.5,153.4,360.2,157.2,360.2z"/>
				<path class="st2" d="M255.3,314.8v9.8l-8,3c1.1,2,1.7,4.3,1.7,7c0,6.3-2.2,11.2-6.6,14.7c-4.4,3.5-11,5.2-19.8,5.2
					c-2.2,0-3.9-0.1-5.2-0.4c-0.5,0.9-0.7,1.7-0.7,2.5c0,1,0.8,1.8,2.4,2.3c1.6,0.5,3.7,0.8,6.4,0.8h9.7c13.1,0,19.7,5.5,19.7,16.6
					c0,7.2-3,12.7-9.1,16.7c-6.1,4-14.6,6-25.6,6c-8.3,0-14.7-1.4-19.2-4.2c-4.5-2.8-6.8-6.8-6.8-12c0-7,4.3-11.5,13-13.6
					c-1.8-0.8-3.4-2-4.7-3.7c-1.3-1.7-2-3.4-2-5c0-1.8,0.5-3.4,1.5-4.8c1-1.4,3.1-3.1,6.3-5c-3-1.3-5.4-3.5-7.2-6.3
					c-1.7-2.9-2.6-6.4-2.6-10.5c0-6.4,2.2-11.3,6.5-14.9c4.3-3.5,10.6-5.3,18.6-5.3c1.1,0,2.9,0.1,5.5,0.4c2.6,0.2,4.6,0.5,5.8,0.7
					H255.3z M211.1,380.8c0,1.7,0.9,3,2.7,4c1.8,1,4.2,1.5,7.2,1.5c4.9,0,8.8-0.6,11.8-1.8c2.9-1.2,4.4-2.8,4.4-4.7
					c0-1.6-0.9-2.7-2.7-3.3s-4.4-1-7.7-1h-7.9c-2.2,0-4,0.5-5.5,1.5C211.9,378.1,211.1,379.3,211.1,380.8z M217.5,334
					c0,6,2.1,9,6.3,9c1.9,0,3.4-0.7,4.5-2.2c1.1-1.5,1.6-3.7,1.6-6.7c0-6.1-2-9.1-6.1-9.1C219.6,325,217.5,328,217.5,334z"/>
				<path class="st2" d="M263.8,300.2c0-3,0.8-5.3,2.5-6.8c1.7-1.5,4.4-2.2,8.2-2.2c3.8,0,6.5,0.8,8.2,2.3c1.7,1.5,2.6,3.8,2.6,6.7
					c0,5.9-3.6,8.9-10.8,8.9C267.4,309.1,263.8,306.1,263.8,300.2z M284.5,373.5h-20.2v-58.7h20.2V373.5z"/>
				<path class="st2" d="M327.4,358.5c2.7,0,6-0.7,9.8-2v14.8c-2.7,1.2-5.3,2-7.8,2.5c-2.5,0.5-5.4,0.8-8.7,0.8
					c-6.8,0-11.7-1.7-14.7-5c-3-3.3-4.5-8.5-4.5-15.4V330h-7.1v-8.2l9-6.4l5.2-12.3h13.2v11.8h14.4V330h-14.4v22.9
					C321.9,356.6,323.7,358.5,327.4,358.5z"/>
				<path class="st2" d="M364.4,346.8h-17.1l-2.6-49H367L364.4,346.8z M344.9,364.9c0-3.1,0.9-5.6,2.8-7.3c1.9-1.7,4.6-2.6,8.1-2.6
					c3.5,0,6.2,0.9,8,2.6c1.8,1.7,2.7,4.2,2.7,7.3c0,3.1-0.9,5.5-2.8,7.3c-1.9,1.7-4.5,2.6-7.9,2.6c-3.4,0-6.1-0.9-8-2.6
					C345.8,370.4,344.9,368,344.9,364.9z"/>
			</g>
		</g>
		<g>
			<path class="st1" d="M178.1,224.7l-84.4-84.5c-12.5-12.5-12.5-32.8,0-45.3l84.4-84.5c12.5-12.5,32.7-12.5,45.2,0l84.4,84.5
				c12.5,12.5,12.5,32.8,0,45.3l-84.4,84.5C210.8,237.2,190.6,237.2,178.1,224.7z"/>
			<path class="st3" d="M208.7,123.1c-4.7,3.9-15.4,6.6-27.9,6.6c-12.5,0-23.2-2.7-27.9-6.6l-2.5,46.6c0,6.1,13.6,10.9,30.4,10.9
				c16.8,0,30.4-4.8,30.4-10.8L208.7,123.1z M162.6,174.9c-3-0.8-5.5-1.8-7.5-2.9l2.1-42.9c1.7,0.8,3.7,1.4,5.9,2L162.6,174.9z"/>
			<path class="st3" d="M202.1,113.7V83.2h-10.6l-10.8,28.4h-0.2l-10.1-28.4h-10.8v30c1.7,0.6,3.9,1.1,6.4,1.6l-0.2-21.3l8.6,22.2
				c2.2,0.1,4.6,0.2,7.1,0.2c1.6,0,3.2,0,4.7-0.1l9.3-22.3l-0.1,21.5C197.9,114.7,200.2,114.2,202.1,113.7z"/>
			<path class="st3" d="M209.7,99.8v7.1c1.6,1,2.5,2.2,2.5,3.4c0,4.4-14.1,8-31.2,8c-17.1,0-30.6-3.6-30.6-8c0-1.2,1.7-2.4,3.3-3.4
				v-7.1c-16,2.3-22.1,6.2-22.1,10.5c0,7,22,12.8,49.3,12.8s49.9-5.7,49.9-12.8C230.9,105.9,222.5,102.1,209.7,99.8z"/>
			<g>
				<path class="st3" d="M284.4,134.7l-0.2-0.2v0l-63.7-63.8l0,0l-19.3-19.3c-0.4-0.4-1-0.7-1.6-0.7c-0.6,0-1.2,0.2-1.6,0.7
					l-3.1,3.1c-0.9,0.9-0.9,2.4,0,3.2l19.3,19.3l63.7,63.8l0.2,0.2c0.4,0.4,1,0.7,1.6,0.7c0.6,0,1.2-0.2,1.6-0.7l3.1-3.1
					C285.2,137.1,285.2,135.6,284.4,134.7z M196.5,56l3.1-3.3c0,0,0,0,0,0v0.2l19.3,19.4l-3.1,3.1L196.5,56z"/>
			</g>
			<polygon class="st3" points="189.6,70.7 183.4,70.7 183.4,64.4 179.2,64.4 179.2,70.7 173,70.7 173,74.8 179.2,74.8 179.2,81.1 
				183.4,81.1 183.4,74.8 189.6,74.8 			"/>
			<polygon class="st3" points="197,29.6 190.8,29.6 190.8,23.4 186.6,23.4 186.6,29.6 180.4,29.6 180.4,33.8 186.6,33.8 186.6,40 
				190.8,40 190.8,33.8 197,33.8 			"/>
			<g>
				<g>
					<rect x="222.6" y="48.6" class="st3" width="16.6" height="4.2"/>
				</g>
			</g>
		</g>
	</g>
</g>
</svg>
