<?xml version="1.0" encoding="utf-8"?>
<!-- Generator: Adobe Illustrator 20.1.0, SVG Export Plug-In . SVG Version: 6.00 Build 0)  -->
<svg version="1.1" id="Layer_1" xmlns="http://www.w3.org/2000/svg" xmlns:xlink="http://www.w3.org/1999/xlink" x="0px" y="0px"
	 viewBox="0 0 32 32" style="enable-background:new 0 0 32 32;" xml:space="preserve">
<style type="text/css">
	.st0{fill:#E54A24;}
	.st1{fill:#FFFFFF;}
</style>
<g>
	<path class="st0" d="M12.9,30.7L1.3,19.1c-1.7-1.7-1.7-4.5,0-6.2L12.9,1.3c1.7-1.7,4.5-1.7,6.2,0l11.6,11.6c1.7,1.7,1.7,4.5,0,6.2
		L19.1,30.7C17.4,32.4,14.6,32.4,12.9,30.7z"/>
	<g>
		<path class="st1" d="M16.8,19.2c-0.6,0.5-1.9,0.8-3.5,0.8s-2.9-0.3-3.5-0.8l-0.3,5.4c0,0.8,1.7,1.4,3.8,1.4s3.8-0.6,3.8-1.4
			L16.8,19.2z M11,25.3c-0.4-0.1-0.7-0.2-1-0.4l0.3-4.9c0.2,0.1,0.5,0.2,0.7,0.3L11,25.3z"/>
		<path class="st1" d="M11.4,17.3l0-2.7l1.1,2.8c0.3,0,0.6,0,0.9,0c0.2,0,0.4,0,0.6,0l1.2-2.8l0,2.7c0.3,0,0.6-0.1,0.8-0.2v-3.8
			h-1.3l-1.4,3.6h0l-1.3-3.6h-1.4v2.9v0.9C10.8,17.2,11.1,17.3,11.4,17.3z"/>
		<path class="st1" d="M16.9,15.8v0.9c0.2,0.1,0.3,0.3,0.3,0.4c0,0.6-1.8,1-3.9,1c-2.2,0-3.9-0.4-3.9-1c0-0.2,0.2-0.3,0.4-0.4v-0.9
			c-2,0.3-2.8,0.8-2.8,1.3c0,0.9,2.8,1.6,6.2,1.6s6.3-0.7,6.3-1.6C19.6,16.6,18.5,16.1,16.9,15.8z"/>
		<g>
			<path class="st1" d="M27.1,19L20,11.9l0,0l-2.7-2.7c-0.1-0.1-0.1-0.1-0.2-0.1s-0.2,0-0.2,0.1l-0.4,0.4c-0.1,0.1-0.1,0.3,0,0.4
				l2.7,2.7l7.1,7.1c0,0,0.2,0.1,0.2,0.1c0.1,0,0.2,0,0.2-0.1l0.4-0.4C27.2,19.3,27.2,19.1,27.1,19z M16.7,9.8l0.4-0.4l2.7,2.7
				l-0.4,0.4L16.7,9.8z"/>
		</g>
		<polygon class="st1" points="15.1,10.4 13.8,10.4 13.8,9 12.9,9 12.9,10.4 11.5,10.4 11.5,11.3 12.9,11.3 12.9,12.6 13.8,12.6 
			13.8,11.3 15.1,11.3 		"/>
		<polygon class="st1" points="16.1,4.8 14.8,4.8 14.8,3.4 13.9,3.4 13.9,4.8 12.5,4.8 12.5,5.7 13.9,5.7 13.9,7 14.8,7 14.8,5.7 
			16.1,5.7 		"/>
		<g>
			<g>
				<rect x="18.4" y="7.4" class="st1" width="3.6" height="0.9"/>
			</g>
		</g>
	</g>
</g>
</svg>
