<?xml version="1.0" encoding="utf-8"?>
<!-- Generator: Adobe Illustrator 20.1.0, SVG Export Plug-In . SVG Version: 6.00 Build 0)  -->
<svg version="1.1" id="Layer_1" xmlns="http://www.w3.org/2000/svg" xmlns:xlink="http://www.w3.org/1999/xlink" x="0px" y="0px"
	 viewBox="0 0 168 200" style="enable-background:new 0 0 168 200;" xml:space="preserve">
<style type="text/css">
	.st0{fill:#E54A24;}
	.st1{fill:#282F3D;}
	.st2{fill:#FFFFFF;}
</style>
<g>
	<g>
		<g>
			<path class="st0" d="M64.7,149.1v-20.5h4.8v20.5H64.7z"/>
			<path class="st0" d="M80.3,145.8c0.7,0,2.4-0.2,2.4-0.5v3.2c0,0.5-2.1,0.7-3.7,0.7c-1.7,0-2.9-0.4-3.7-1.3
				c-0.8-0.9-1.1-2.1-1.1-3.9v-7h-2.4v-2.3l2.6-1.5l1.5-3.4h3.2v3.6h3.6v3.6h-3.6v7c0,0.6-0.2,1,0.2,1.3
				C79.6,145.7,79.7,145.8,80.3,145.8z"/>
			<path class="st0" d="M89.7,128.6l0.2,0.4c-0.5,1.8-1.3,4.4-2.4,6.8h-3c0.6-3.6,1.1-4.8,1.4-7.2H89.7z"/>
			<path class="st0" d="M103.3,144.3c0,1.6-0.6,2.8-1.7,3.7c-1.1,0.8-2.8,1.3-5,1.3c-1.1,0-2.3-0.1-3.1-0.2
				c-0.8-0.2-1.3-0.4-2.5-0.7v-3.5c1.2,0.4,1.9,0.7,2.9,0.9c1,0.3,2,0.4,2.7,0.4c1.5,0,2.4-0.4,2.4-1.3c0-0.3-0.1-0.6-0.3-0.8
				c-0.2-0.2-0.5-0.4-1-0.7c-0.5-0.3-1.2-0.6-2-0.9c-1.2-0.5-2.1-1-2.6-1.4c-0.6-0.4-1-0.9-1.2-1.5c-0.3-0.6-0.4-1.2-0.4-2
				c0-1.4,0.5-2.5,1.6-3.2s2.6-1.1,4.6-1.1c1.9,0,3.7,0.4,5.5,1.2l-1.3,3.1c-0.8-0.3-1.5-0.6-2.2-0.8c-0.7-0.2-1.4-0.3-2.1-0.3
				c-1.3,0-1.9,0.3-1.9,1c0,0.4,0.2,0.7,0.6,1c0.4,0.3,1.3,0.7,2.6,1.2c1.2,0.5,2.1,1,2.7,1.4c0.6,0.4,1,0.9,1.3,1.5
				C103.2,142.9,103.3,143.5,103.3,144.3z"/>
		</g>
		<g>
			<path class="st1" d="M16.6,187.2l-7.8-27.4H8.6c0.4,4.7,0.5,8.3,0.5,10.9v16.5H0v-38.1h13.7l7.9,27h0.2l7.8-27h13.7v38.1h-9.4
				v-16.7c0-0.9,0-1.8,0-2.9s0.1-3.7,0.4-7.8H34l-7.7,27.4H16.6z"/>
			<path class="st1" d="M70.1,187.2l-2-3.9h-0.2c-1.4,1.7-2.8,2.9-4.2,3.5c-1.4,0.6-3.3,0.9-5.5,0.9c-2.8,0-5-0.8-6.6-2.5
				c-1.6-1.7-2.4-4-2.4-7c0-3.1,1.1-5.5,3.3-7c2.2-1.5,5.3-2.4,9.5-2.6l4.9-0.2V168c0-2.4-1.2-3.6-3.6-3.6c-2.1,0-4.9,0.7-8.2,2.2
				l-2.9-6.7c3.4-1.8,7.8-2.7,13-2.7c3.8,0,6.7,0.9,8.8,2.8c2.1,1.9,3.1,4.5,3.1,7.9v19.3H70.1z M62.6,180.5c1.2,0,2.3-0.4,3.2-1.2
				c0.9-0.8,1.3-1.8,1.3-3V174l-2.3,0.1c-3.3,0.1-5,1.4-5,3.7C59.7,179.6,60.6,180.5,62.6,180.5z"/>
			<path class="st1" d="M111.9,157.7v4.9l-4,1.5c0.6,1,0.8,2.2,0.8,3.5c0,3.2-1.1,5.6-3.3,7.4c-2.2,1.8-5.6,2.6-10,2.6
				c-1.1,0-2-0.1-2.6-0.2c-0.2,0.5-0.4,0.9-0.4,1.3c0,0.5,0.4,0.9,1.2,1.2c0.8,0.3,1.9,0.4,3.2,0.4h4.9c6.6,0,9.9,2.8,9.9,8.4
				c0,3.6-1.5,6.4-4.6,8.4c-3.1,2-7.4,3-12.9,3c-4.2,0-7.4-0.7-9.7-2.1c-2.3-1.4-3.4-3.4-3.4-6c0-3.5,2.2-5.8,6.6-6.8
				c-0.9-0.4-1.7-1-2.4-1.8s-1-1.7-1-2.5c0-0.9,0.3-1.7,0.8-2.4s1.6-1.5,3.1-2.5c-1.5-0.7-2.7-1.7-3.6-3.2c-0.9-1.4-1.3-3.2-1.3-5.3
				c0-3.2,1.1-5.7,3.3-7.5c2.2-1.8,5.3-2.7,9.4-2.7c0.5,0,1.5,0.1,2.8,0.2c1.3,0.1,2.3,0.2,2.9,0.3H111.9z M89.7,190.9
				c0,0.8,0.5,1.5,1.4,2c0.9,0.5,2.1,0.8,3.6,0.8c2.5,0,4.4-0.3,5.9-0.9c1.5-0.6,2.2-1.4,2.2-2.4c0-0.8-0.5-1.3-1.4-1.7
				s-2.2-0.5-3.9-0.5h-4c-1.1,0-2,0.3-2.8,0.8C90,189.5,89.7,190.1,89.7,190.9z M92.9,167.3c0,3,1,4.5,3.1,4.5c1,0,1.7-0.4,2.2-1.1
				c0.5-0.7,0.8-1.9,0.8-3.4c0-3.1-1-4.6-3-4.6C93.9,162.8,92.9,164.3,92.9,167.3z"/>
			<path class="st1" d="M116.1,150.3c0-1.5,0.4-2.7,1.3-3.4c0.8-0.7,2.2-1.1,4.1-1.1c1.9,0,3.3,0.4,4.1,1.1c0.9,0.8,1.3,1.9,1.3,3.4
				c0,3-1.8,4.5-5.4,4.5C117.9,154.8,116.1,153.3,116.1,150.3z M126.6,187.2h-10.2v-29.5h10.2V187.2z"/>
			<path class="st1" d="M148.1,179.7c1.4,0,3-0.3,4.9-1v7.4c-1.4,0.6-2.7,1-3.9,1.3c-1.2,0.3-2.7,0.4-4.4,0.4
				c-3.4,0-5.9-0.8-7.4-2.5c-1.5-1.7-2.3-4.2-2.3-7.7v-12.2h-3.6v-4.1l4.5-3.2l2.6-6.2h6.7v5.9h7.2v7.6h-7.2v11.5
				C145.3,178.7,146.2,179.7,148.1,179.7z"/>
			<path class="st1" d="M166.7,173.8h-8.6l-1.3-24.6H168L166.7,173.8z M156.9,182.9c0-1.6,0.5-2.8,1.4-3.7c0.9-0.9,2.3-1.3,4.1-1.3
				c1.8,0,3.1,0.4,4,1.3c0.9,0.9,1.4,2.1,1.4,3.7c0,1.6-0.5,2.8-1.4,3.7c-0.9,0.9-2.3,1.3-4,1.3c-1.7,0-3.1-0.4-4-1.3
				C157.4,185.6,156.9,184.4,156.9,182.9z"/>
		</g>
	</g>
	<g>
		<path class="st0" d="M73.1,112.4L30.6,69.9c-6.3-6.3-6.3-16.5,0-22.8L73.1,4.7c6.3-6.3,16.5-6.3,22.7,0l42.4,42.5
			c6.3,6.3,6.3,16.5,0,22.8l-42.4,42.5C89.5,118.7,79.3,118.7,73.1,112.4z"/>
		<path class="st2" d="M88.4,61.3c-2.4,1.9-7.7,3.3-14,3.3c-6.3,0-11.7-1.4-14-3.3l-1.3,23.4c0,3,6.8,5.5,15.3,5.5
			c8.4,0,15.3-2.4,15.3-5.4L88.4,61.3z M65.3,87.4c-1.5-0.4-2.8-0.9-3.8-1.5l1.1-21.5c0.9,0.4,1.8,0.7,2.9,1L65.3,87.4z"/>
		<path class="st2" d="M85.1,56.6V41.3h-5.3l-5.4,14.3h-0.1l-5.1-14.3h-5.4v15.1c0.9,0.3,2,0.6,3.2,0.8l-0.1-10.7l4.3,11.2
			c1.1,0.1,2.3,0.1,3.6,0.1c0.8,0,1.6,0,2.3-0.1l4.7-11.2l0,10.8C83,57.1,84.2,56.9,85.1,56.6z"/>
		<path class="st2" d="M89,49.6v3.6c0.8,0.5,1.3,1.1,1.3,1.7c0,2.2-7.1,4-15.7,4c-8.6,0-15.4-1.8-15.4-4c0-0.6,0.9-1.2,1.7-1.7v-3.6
			c-8,1.2-11.1,3.1-11.1,5.3c0,3.5,11,6.4,24.8,6.4s25.1-2.9,25.1-6.4C99.6,52.7,95.4,50.8,89,49.6z"/>
		<g>
			<path class="st2" d="M126.5,67.2L126.5,67.2L126.5,67.2L94.4,35.1l0,0l-9.7-9.7c-0.2-0.2-0.5-0.3-0.8-0.3c-0.3,0-0.6,0.1-0.8,0.3
				l-1.6,1.6c-0.4,0.4-0.4,1.2,0,1.6l9.7,9.7l32,32.1l0.1,0.1c0.2,0.2,0.5,0.3,0.8,0.3c0.3,0,0.6-0.1,0.8-0.3l1.6-1.6
				C126.9,68.4,126.9,67.7,126.5,67.2z M82.3,27.6l1.6-1.6l9.7,9.8L92,37.4L82.3,27.6z"/>
		</g>
		<polygon class="st2" points="78.9,35 75.7,35 75.7,31.9 73.6,31.9 73.6,35 70.5,35 70.5,37.1 73.6,37.1 73.6,40.2 75.7,40.2 
			75.7,37.1 78.9,37.1 		"/>
		<polygon class="st2" points="82.6,14.4 79.4,14.4 79.4,11.2 77.4,11.2 77.4,14.4 74.2,14.4 74.2,16.5 77.4,16.5 77.4,19.6 
			79.4,19.6 79.4,16.5 82.6,16.5 		"/>
		<g>
			<g>
				<rect x="95.4" y="23.9" class="st2" width="8.4" height="2.1"/>
			</g>
		</g>
	</g>
</g>
</svg>
