<?xml version="1.0" encoding="utf-8"?>
<!-- Generator: Adobe Illustrator 20.1.0, SVG Export Plug-In . SVG Version: 6.00 Build 0)  -->
<svg version="1.1" id="Layer_1" xmlns="http://www.w3.org/2000/svg" xmlns:xlink="http://www.w3.org/1999/xlink" x="0px" y="0px"
	 viewBox="0 0 400 400" style="enable-background:new 0 0 400 400;" xml:space="preserve">
<style type="text/css">
	.st0{fill:none;}
	.st1{fill:#E54A24;}
	.st2{fill:#FFFFFF;}
	.st3{fill:#282F3D;}
</style>
<g>
	<rect class="st0" width="400" height="400"/>
	<g>
		<g>
			<path class="st1" d="M53.5,260.3L6.2,212.7c-7-7-7-18.4,0-25.5l47.2-47.6c7-7,18.3-7,25.3,0l47.2,47.6c7,7,7,18.4,0,25.5
				l-47.2,47.6C71.8,267.4,60.4,267.4,53.5,260.3z"/>
			<path class="st2" d="M70.5,203.1c-2.6,2.2-8.6,3.7-15.6,3.7c-7,0-13-1.5-15.6-3.7l-1.4,26.2c0,3.4,7.6,6.1,17,6.1
				c9.4,0,17-2.7,17-6.1L70.5,203.1z M44.8,232.3c-1.7-0.4-3.1-1-4.2-1.6l1.2-24.1c1,0.4,2.1,0.8,3.3,1.1L44.8,232.3z"/>
			<path class="st2" d="M66.9,197.8v-17.1h-6l-6,16h-0.1l-5.7-16h-6v16.9c1,0.3,2.2,0.6,3.6,0.9l-0.1-12l4.8,12.5
				c1.3,0.1,2.6,0.1,4,0.1c0.9,0,1.8,0,2.6-0.1l5.2-12.5l-0.1,12.1C64.5,198.4,65.8,198.1,66.9,197.8z"/>
			<path class="st2" d="M71.1,190v4c0.9,0.6,1.4,1.2,1.4,1.9c0,2.5-7.9,4.5-17.4,4.5c-9.6,0-17.1-2-17.1-4.5c0-0.7,1-1.4,1.9-1.9v-4
				c-8.9,1.3-12.3,3.5-12.3,5.9c0,4,12.3,7.2,27.6,7.2s27.9-3.2,27.9-7.2C83,193.5,78.3,191.3,71.1,190z"/>
			<g>
				<path class="st2" d="M112.9,209.7L112.9,209.7L112.9,209.7l-35.7-36l0,0l-10.8-10.9c-0.2-0.3-0.6-0.4-0.9-0.4
					c-0.3,0-0.7,0.1-0.9,0.4l-1.7,1.8c-0.5,0.5-0.5,1.3,0,1.8l10.8,10.9l35.6,35.9l0.1,0.1c0.2,0.3,0.6,0.4,0.9,0.4
					c0.3,0,0.7-0.1,0.9-0.4l1.7-1.8C113.4,211,113.4,210.2,112.9,209.7z M63.7,165.3l1.7-1.9c0,0,0,0,0,0v0.1l10.8,10.9l-1.7,1.7
					L63.7,165.3z"/>
			</g>
			<polygon class="st2" points="59.9,173.6 56.4,173.6 56.4,170.1 54.1,170.1 54.1,173.6 50.6,173.6 50.6,176 54.1,176 54.1,179.5 
				56.4,179.5 56.4,176 59.9,176 			"/>
			<polygon class="st2" points="64,150.5 60.5,150.5 60.5,147 58.2,147 58.2,150.5 54.7,150.5 54.7,152.9 58.2,152.9 58.2,156.4 
				60.5,156.4 60.5,152.9 64,152.9 			"/>
			<g>
				<g>
					<rect x="78.4" y="161.2" class="st2" width="9.3" height="2.3"/>
				</g>
			</g>
		</g>
		<g>
			<g>
				<path class="st1" d="M242.8,171.9l0-31.1h7.3l0,31.1H242.8z"/>
				<path class="st1" d="M266.4,166.9c1.1,0,3.7-0.2,3.7-0.7v4.8c0,0.7-3.2,1.1-5.5,1.1c-2.6,0-4.3-0.7-5.5-2
					c-1.2-1.3-1.7-3.3-1.7-5.9v-10.6h-3.6v-3.5l3.9-2.3l2.2-5.1l4.8,0v5.5h5.5v5.5h-5.5v10.6c0,0.9-0.3,1.6,0.3,2
					C265.4,166.7,265.5,166.9,266.4,166.9z"/>
				<path class="st1" d="M280.7,140.8l0.3,0.7c-0.7,2.8-1.9,6.7-3.7,10.3l-4.6,0c1-5.5,1.7-7.3,2.1-11H280.7z"/>
				<path class="st1" d="M301.3,164.6c0,2.4-0.8,4.3-2.5,5.6c-1.7,1.3-4.2,1.9-7.5,1.9c-1.7,0-3.5-0.1-4.7-0.3
					c-1.2-0.2-1.9-0.6-3.7-1v-5.3c1.8,0.6,2.9,1,4.4,1.4c1.5,0.4,3,0.6,4.1,0.6c2.3,0,3.6-0.7,3.6-2c0-0.5-0.1-0.9-0.4-1.2
					c-0.3-0.3-0.8-0.7-1.6-1.1c-0.8-0.4-1.8-0.9-3-1.4c-1.8-0.8-3.1-1.5-4-2.1c-0.8-0.6-1.5-1.4-1.8-2.2s-0.6-1.9-0.6-3.1
					c0-2.1,0.8-3.7,2.4-4.9c1.6-1.2,3.9-1.7,6.9-1.7c2.8,0,5.6,0.6,8.3,1.9l-1.9,4.7c-1.2-0.5-2.3-0.9-3.3-1.3
					c-1-0.3-2.1-0.5-3.1-0.5c-1.9,0-2.8,0.5-2.8,1.5c0,0.6,0.3,1.1,0.9,1.5c0.6,0.4,1.9,1.1,4,1.9c1.8,0.7,3.2,1.4,4,2.1
					c0.9,0.6,1.5,1.4,1.9,2.2C301.1,162.4,301.3,163.4,301.3,164.6z"/>
			</g>
			<g>
				<path class="st3" d="M170.1,229.8l-11.8-41.7H158c0.6,7.1,0.8,12.6,0.8,16.6v25.1h-13.8l0-57.9l20.7,0l12,41.1h0.3l11.8-41.1
					l20.7,0l0,57.9h-14.3l0-25.4c0-1.3,0-2.8,0.1-4.4c0-1.6,0.2-5.6,0.5-11.8h-0.4l-11.6,41.6L170.1,229.8z"/>
				<path class="st3" d="M251,229.8l-2.9-5.9h-0.3c-2.1,2.6-4.2,4.4-6.3,5.3c-2.1,0.9-4.9,1.4-8.3,1.4c-4.2,0-7.5-1.3-9.9-3.8
					s-3.6-6.1-3.6-10.7c0-4.8,1.7-8.3,5-10.7c3.3-2.3,8.1-3.6,14.3-3.9l7.4-0.2v-0.6c0-3.7-1.8-5.5-5.4-5.5c-3.2,0-7.4,1.1-12.4,3.3
					l-4.4-10.2c5.2-2.7,11.7-4,19.7-4c5.7,0,10.1,1.4,13.3,4.3c3.1,2.9,4.7,6.8,4.7,12v29.4H251z M239.6,219.7
					c1.9,0,3.5-0.6,4.8-1.8c1.3-1.2,2-2.7,2-4.6v-3.5l-3.5,0.2c-5.1,0.2-7.6,2.1-7.6,5.6C235.3,218.3,236.7,219.7,239.6,219.7z"/>
				<path class="st3" d="M314.1,185v7.5l-6.1,2.3c0.8,1.5,1.3,3.3,1.3,5.3c0,4.8-1.7,8.6-5.1,11.2c-3.4,2.7-8.4,4-15.1,4
					c-1.7,0-3-0.1-3.9-0.3c-0.4,0.7-0.6,1.3-0.6,1.9c0,0.8,0.6,1.4,1.8,1.8c1.2,0.4,2.8,0.6,4.8,0.6h7.4c10,0,15,4.2,15,12.7
					c0,5.5-2.3,9.7-6.9,12.8c-4.6,3-11.1,4.6-19.5,4.6c-6.3,0-11.2-1.1-14.6-3.2c-3.4-2.1-5.1-5.2-5.1-9.2c0-5.4,3.3-8.8,9.9-10.4
					c-1.4-0.6-2.5-1.5-3.6-2.8c-1-1.3-1.5-2.6-1.5-3.8c0-1.4,0.4-2.6,1.1-3.7s2.3-2.3,4.8-3.8c-2.3-1-4.1-2.6-5.4-4.8
					c-1.3-2.2-2-4.9-2-8c0-4.9,1.7-8.7,5-11.4c3.3-2.7,8-4,14.2-4c0.8,0,2.2,0.1,4.2,0.3c2,0.2,3.5,0.4,4.4,0.5H314.1z M280.6,235.4
					c0,1.3,0.7,2.3,2,3.1c1.4,0.8,3.2,1.2,5.5,1.2c3.7,0,6.7-0.5,8.9-1.4c2.2-0.9,3.4-2.1,3.4-3.6c0-1.2-0.7-2-2-2.5
					c-1.4-0.5-3.3-0.7-5.9-0.7l-6,0c-1.7,0-3,0.4-4.2,1.2C281.1,233.3,280.6,234.3,280.6,235.4z M285.4,199.6c0,4.6,1.6,6.9,4.8,6.9
					c1.5,0,2.6-0.6,3.4-1.7c0.8-1.1,1.2-2.8,1.2-5.1c0-4.6-1.5-7-4.6-7C287,192.8,285.4,195.1,285.4,199.6z"/>
				<path class="st3" d="M320.6,173.8c0-2.3,0.6-4.1,1.9-5.2c1.3-1.1,3.4-1.7,6.2-1.7c2.9,0,4.9,0.6,6.2,1.7c1.3,1.2,2,2.9,2,5.1
					c0,4.5-2.7,6.8-8.2,6.8C323.3,180.6,320.6,178.3,320.6,173.8z M336.3,229.8l-15.4,0l0-44.9h15.4L336.3,229.8z"/>
				<path class="st3" d="M368.9,218.4c2.1,0,4.5-0.5,7.4-1.5v11.3c-2.1,0.9-4,1.5-5.9,1.9c-1.9,0.4-4.1,0.6-6.6,0.6
					c-5.2,0-8.9-1.3-11.2-3.8c-2.3-2.5-3.4-6.5-3.4-11.7v-18.5h-5.4v-6.3l6.8-4.9l4-9.4h10.1v9l10.9,0v11.6h-10.9V214
					C364.7,216.9,366.1,218.4,368.9,218.4z"/>
				<path class="st3" d="M397,209.4h-13l-2-37.5h17L397,209.4z M382.2,223.2c0-2.4,0.7-4.3,2.1-5.6c1.4-1.3,3.5-2,6.2-2
					c2.7,0,4.7,0.7,6.1,2c1.4,1.3,2.1,3.2,2.1,5.6c0,2.4-0.7,4.2-2.1,5.6c-1.4,1.3-3.4,2-6,2c-2.6,0-4.6-0.7-6.1-2
					C382.9,227.5,382.2,225.6,382.2,223.2z"/>
			</g>
		</g>
	</g>
</g>
</svg>
