<?xml version="1.0" encoding="utf-8"?>
<!-- Generator: Adobe Illustrator 20.1.0, SVG Export Plug-In . SVG Version: 6.00 Build 0)  -->
<svg version="1.1" id="Layer_1" xmlns="http://www.w3.org/2000/svg" xmlns:xlink="http://www.w3.org/1999/xlink" x="0px" y="0px"
	 viewBox="0 0 200 200" style="enable-background:new 0 0 200 200;" xml:space="preserve">
<style type="text/css">
	.st0{fill:#E54A24;}
	.st1{fill:#FFFFFF;}
</style>
<g>
	<path class="st0" d="M80.9,191.6L9.1,119.8c-10.6-10.6-10.6-27.8,0-38.5L80.9,9.5c10.6-10.6,27.8-10.6,38.5,0l71.8,71.8
		c10.6,10.6,10.6,27.8,0,38.5l-71.8,71.8C108.7,202.2,91.5,202.2,80.9,191.6z"/>
	<path class="st1" d="M106.9,105.2c-4,3.3-13.1,5.6-23.7,5.6c-10.6,0-19.7-2.3-23.7-5.6l-2.2,39.6c0,5.1,11.6,9.2,25.9,9.2
		c14.3,0,25.9-4,25.9-9.2L106.9,105.2z M67.7,149.2c-2.5-0.7-4.7-1.5-6.4-2.5l1.8-36.4c1.4,0.6,3.1,1.2,5,1.7L67.7,149.2z"/>
	<path class="st1" d="M101.3,97.2V71.4h-9l-9.1,24.1h-0.1l-8.6-24.1h-9.2v25.5c1.5,0.5,3.3,1,5.4,1.3l-0.1-18.1L77.8,99
		c1.9,0.1,3.9,0.2,6,0.2c1.4,0,2.7,0,4-0.1l7.9-18.9l-0.1,18.2C97.7,98.1,99.6,97.7,101.3,97.2z"/>
	<path class="st1" d="M107.8,85.4v6c1.4,0.9,2.1,1.9,2.1,2.9c0,3.7-12,6.8-26.5,6.8c-14.5,0-26-3-26-6.8c0-1,1.5-2,2.8-2.9v-6
		c-13.6,1.9-18.8,5.2-18.8,9c0,6,18.7,10.8,41.9,10.8s42.5-4.8,42.5-10.8C125.8,90.6,118.6,87.4,107.8,85.4z"/>
	<g>
		<path class="st1" d="M171.3,115.1l-0.1-0.1v0l-54.2-54.2l0,0l-16.4-16.4c-0.4-0.4-0.9-0.6-1.4-0.6s-1,0.2-1.4,0.6l-2.6,2.6
			c-0.8,0.8-0.8,2,0,2.8l16.4,16.4l54.2,54.2l0.1,0.1c0.4,0.4,0.9,0.6,1.4,0.6c0.5,0,1-0.2,1.4-0.6l2.6-2.6
			C172,117.1,172,115.9,171.3,115.1z M96.5,48.2l2.6-2.6l16.4,16.5l-2.6,2.6L96.5,48.2z"/>
	</g>
	<polygon class="st1" points="90.7,60.7 85.4,60.7 85.4,55.4 81.8,55.4 81.8,60.7 76.5,60.7 76.5,64.2 81.8,64.2 81.8,69.5 
		85.4,69.5 85.4,64.2 90.7,64.2 	"/>
	<polygon class="st1" points="97,25.8 91.7,25.8 91.7,20.5 88.1,20.5 88.1,25.8 82.8,25.8 82.8,29.4 88.1,29.4 88.1,34.7 91.7,34.7 
		91.7,29.4 97,29.4 	"/>
	<g>
		<g>
			<rect x="118.7" y="42" class="st1" width="14.2" height="3.5"/>
		</g>
	</g>
</g>
</svg>
