<?xml version="1.0" encoding="utf-8"?>
<!-- Generator: Adobe Illustrator 20.1.0, SVG Export Plug-In . SVG Version: 6.00 Build 0)  -->
<svg version="1.1" id="Layer_1" xmlns="http://www.w3.org/2000/svg" xmlns:xlink="http://www.w3.org/1999/xlink" x="0px" y="0px"
	 viewBox="0 0 48 48" style="enable-background:new 0 0 48 48;" xml:space="preserve">
<style type="text/css">
	.st0{fill:#E54A24;}
	.st1{fill:#FFFFFF;}
</style>
<g>
	<path class="st0" d="M19.3,46.1L1.9,28.7c-2.6-2.6-2.6-6.7,0-9.3L19.3,1.9c2.6-2.6,6.7-2.6,9.3,0l17.4,17.4c2.6,2.6,2.6,6.7,0,9.3
		L28.7,46.1C26.1,48.6,21.9,48.6,19.3,46.1z"/>
	<g>
		<path class="st1" d="M25.2,28.5c-0.9,0.7-2.9,0.9-5.3,0.9c-2.4,0-4.4-0.1-5.3-0.9l-0.5,8.4c0,1.1,2.6,2.1,5.8,2.1
			c3.2,0,5.8-0.9,5.8-2L25.2,28.5z M16.5,37.9c-0.6-0.1-1.1-0.3-1.4-0.5l0.4-7.7c0.3,0.1,0.7,0.3,1.1,0.4L16.5,37.9z"/>
		<path class="st1" d="M17.1,25.9l0-4l1.6,4.2c0.4,0,0.9,0,1.3,0c0.3,0,0.6,0,0.9,0l1.8-4.2l0,4.1c0.5-0.1,0.9-0.2,1.3-0.3V20h-2
			l-2,5.4h0L17.9,20h-2v4.4v1.3C16.2,25.8,16.6,25.9,17.1,25.9z"/>
		<path class="st1" d="M25.4,23.7V25c0.3,0.2,0.5,0.4,0.5,0.7c0,0.8-2.7,1.5-5.9,1.5c-3.2,0-5.8-0.7-5.8-1.5c0-0.2,0.3-0.5,0.6-0.7
			v-1.3c-3,0.4-4.2,1.2-4.2,2c0,1.3,4.2,2.4,9.3,2.4s9.5-1.1,9.5-2.4C29.4,24.9,27.8,24.1,25.4,23.7z"/>
		<g>
			<path class="st1" d="M40.8,28.6L29.3,17.1l0,0l-4-4C25.2,13,25.1,13,25,13c-0.1,0-0.2,0-0.3,0.1L24,13.8c-0.2,0.2-0.2,0.5,0,0.7
				l4,4l11.4,11.4c0,0,0.2,0.2,0.4,0.2c0.1,0,0.2,0,0.3-0.1l0.6-0.6C40.9,29,40.9,28.7,40.8,28.6z M24.4,14.1l0.6-0.6l4,4L28.3,18
				L24.4,14.1z"/>
		</g>
		<polygon class="st1" points="22.5,15.8 20.5,15.8 20.5,13.8 19.5,13.8 19.5,15.8 17.5,15.8 17.5,16.8 19.5,16.8 19.5,18.8 
			20.5,18.8 20.5,16.8 22.5,16.8 		"/>
		<polygon class="st1" points="24,7.3 22,7.3 22,5.3 21,5.3 21,7.3 19,7.3 19,8.3 21,8.3 21,10.3 22,10.3 22,8.3 24,8.3 		"/>
		<g>
			<g>
				<rect x="27.7" y="11.2" class="st1" width="5" height="1"/>
			</g>
		</g>
	</g>
</g>
</svg>
