<?xml version="1.0" encoding="utf-8"?>
<!-- Generator: Adobe Illustrator 20.1.0, SVG Export Plug-In . SVG Version: 6.00 Build 0)  -->
<svg version="1.1" id="Layer_1" xmlns="http://www.w3.org/2000/svg" xmlns:xlink="http://www.w3.org/1999/xlink" x="0px" y="0px"
	 viewBox="0 0 100 100" style="enable-background:new 0 0 100 100;" xml:space="preserve">
<style type="text/css">
	.st0{fill:#E54A24;}
	.st1{fill:#FFFFFF;}
</style>
<g>
	<path class="st0" d="M40.5,95.1L4.9,59.5c-5.3-5.3-5.3-13.8,0-19L40.5,4.9c5.3-5.3,13.8-5.3,19,0l35.5,35.5c5.3,5.3,5.3,13.8,0,19
		L59.5,95.1C54.3,100.3,45.7,100.3,40.5,95.1z"/>
	<path class="st1" d="M53.3,52.3c-2,1.6-6.5,2.8-11.7,2.8c-5.3,0-9.8-1.1-11.7-2.8l-1.1,19.6c0,2.5,5.7,4.6,12.8,4.6
		c7.1,0,12.8-2,12.8-4.5L53.3,52.3z M34,74.1c-1.3-0.3-2.3-0.7-3.2-1.2l0.9-18c0.7,0.3,1.5,0.6,2.5,0.8L34,74.1z"/>
	<path class="st1" d="M50.6,48.4V35.6h-4.5l-4.5,11.9h-0.1l-4.3-11.9h-4.5v12.6c0.7,0.3,1.6,0.5,2.7,0.7l-0.1-9l3.6,9.4
		c0.9,0.1,1.9,0.1,3,0.1c0.7,0,1.3,0,2,0l3.9-9.4l0,9C48.8,48.8,49.8,48.6,50.6,48.4z"/>
	<path class="st1" d="M53.8,42.5v3c0.7,0.4,1.1,0.9,1.1,1.4c0,1.8-5.9,3.3-13.1,3.3c-7.2,0-12.9-1.5-12.9-3.3c0-0.5,0.7-1,1.4-1.4
		v-3c-6.7,1-9.3,2.6-9.3,4.4c0,3,9.2,5.4,20.8,5.4s21-2.4,21-5.4C62.7,45.1,59.2,43.5,53.8,42.5z"/>
	<g>
		<path class="st1" d="M85.2,57.2L85.2,57.2L85.2,57.2L58.3,30.3l0,0l-8.1-8.1c-0.2-0.2-0.4-0.3-0.7-0.3c-0.2,0-0.5,0.1-0.7,0.3
			l-1.3,1.3c-0.4,0.4-0.4,1,0,1.4l8.1,8.1l26.8,26.8l0.1,0.1c0.2,0.2,0.4,0.3,0.7,0.3c0.2,0,0.5-0.1,0.7-0.3l1.3-1.3
			C85.6,58.2,85.6,57.6,85.2,57.2z M48.2,24.1l1.3-1.3l8.1,8.2l-1.3,1.3L48.2,24.1z"/>
	</g>
	<polygon class="st1" points="45.3,30.3 42.7,30.3 42.7,27.7 41,27.7 41,30.3 38.3,30.3 38.3,32 41,32 41,34.7 42.7,34.7 42.7,32 
		45.3,32 	"/>
	<polygon class="st1" points="48.4,13 45.8,13 45.8,10.4 44.1,10.4 44.1,13 41.4,13 41.4,14.8 44.1,14.8 44.1,17.4 45.8,17.4 
		45.8,14.8 48.4,14.8 	"/>
	<g>
		<g>
			<rect x="59.2" y="21" class="st1" width="7" height="1.8"/>
		</g>
	</g>
</g>
</svg>
