<?xml version="1.0" encoding="utf-8"?>
<!-- Generator: Adobe Illustrator 20.1.0, SVG Export Plug-In . SVG Version: 6.00 Build 0)  -->
<svg version="1.1" id="Layer_1" xmlns="http://www.w3.org/2000/svg" xmlns:xlink="http://www.w3.org/1999/xlink" x="0px" y="0px"
	 viewBox="0 0 400 400" style="enable-background:new 0 0 400 400;" xml:space="preserve">
<style type="text/css">
	.st0{fill:none;}
	.st1{fill:#E54A24;}
	.st2{fill:#FFFFFF;}
</style>
<rect y="0" class="st0" width="400" height="400"/>
<g>
	<path class="st1" d="M161.1,383.9L16.1,238.9c-21.5-21.5-21.5-56.2,0-77.7L161.1,16.1c21.5-21.5,56.2-21.5,77.7,0l145.1,145.1
		c21.5,21.5,21.5,56.2,0,77.7L238.9,383.9C217.4,405.4,182.6,405.4,161.1,383.9z"/>
	<path class="st2" d="M213.6,209.4c-8.1,6.6-26.5,11.3-47.9,11.3c-21.4,0-39.8-4.6-47.9-11.3l-4.4,80c0,10.4,23.4,18.6,52.3,18.6
		c28.9,0,52.3-8.2,52.3-18.5L213.6,209.4z M134.6,298.3c-5.1-1.4-9.5-3-13-5l3.6-73.6c2.9,1.3,6.3,2.4,10.1,3.4L134.6,298.3z"/>
	<path class="st2" d="M202.3,193.3v-52.2H184l-18.5,48.7h-0.3l-17.4-48.7h-18.5v51.5c3,1,6.7,1.9,11,2.7l-0.3-36.5l14.8,38.2
		c3.9,0.2,7.9,0.4,12.2,0.4c2.7,0,5.4-0.1,8-0.2l16-38.3l-0.2,36.8C195.2,195.1,199,194.3,202.3,193.3z"/>
	<path class="st2" d="M215.5,169.5v12.2c2.7,1.8,4.3,3.8,4.3,5.9c0,7.5-24.2,13.7-53.6,13.7c-29.3,0-52.6-6.1-52.6-13.7
		c0-2.1,3-4.1,5.7-5.9v-12.2c-27.5,3.9-37.9,10.6-37.9,18.1c0,12.1,37.7,21.9,84.7,21.9s85.8-9.8,85.8-21.9
		C251.9,180,237.4,173.4,215.5,169.5z"/>
	<g>
		<path class="st2" d="M343.7,229.5l-0.3-0.3v0L234,119.8l0,0l-33.1-33.1c-0.8-0.8-1.8-1.1-2.8-1.1c-1,0-2,0.4-2.8,1.1l-5.3,5.3
			c-1.5,1.5-1.5,4,0,5.6l33.1,33.1l109.5,109.5l0.3,0.3c0.8,0.8,1.8,1.1,2.8,1.1c1,0,2-0.4,2.8-1.1l5.3-5.3
			C345.2,233.5,345.2,231,343.7,229.5z M192.7,94.3L198,89l33.1,33.3l-5.3,5.2L192.7,94.3z"/>
	</g>
	<polygon class="st2" points="181,119.5 170.2,119.5 170.2,108.8 163.1,108.8 163.1,119.5 152.4,119.5 152.4,126.7 163.1,126.7 
		163.1,137.4 170.2,137.4 170.2,126.7 181,126.7 	"/>
	<polygon class="st2" points="193.7,49.1 182.9,49.1 182.9,38.4 175.8,38.4 175.8,49.1 165.1,49.1 165.1,56.2 175.8,56.2 175.8,67 
		182.9,67 182.9,56.2 193.7,56.2 	"/>
	<g>
		<g>
			<rect x="237.6" y="81.7" class="st2" width="28.6" height="7.2"/>
		</g>
	</g>
</g>
</svg>
