<?xml version="1.0" encoding="utf-8"?>
<!-- Generator: Adobe Illustrator 20.1.0, SVG Export Plug-In . SVG Version: 6.00 Build 0)  -->
<svg version="1.1" id="Layer_1" xmlns="http://www.w3.org/2000/svg" xmlns:xlink="http://www.w3.org/1999/xlink" x="0px" y="0px"
	 viewBox="0 0 358 118" style="enable-background:new 0 0 358 118;" xml:space="preserve">
<style type="text/css">
	.st0{fill:#E54A24;}
	.st1{fill:#FFFFFF;}
	.st2{fill:#282F3D;}
</style>
<g>
	<g>
		<path class="st0" d="M47.2,113.3L4.7,70.5c-6.3-6.3-6.3-16.6,0-22.9L47.2,4.7c6.3-6.3,16.5-6.3,22.8,0l42.5,42.8
			c6.3,6.3,6.3,16.6,0,22.9l-42.5,42.8C63.7,119.6,53.5,119.6,47.2,113.3z"/>
		<path class="st1" d="M62.6,61.8c-2.4,2-7.8,3.3-14,3.3c-6.3,0-11.7-1.4-14-3.3l-1.3,23.6c0,3.1,6.9,5.5,15.3,5.5
			c8.5,0,15.3-2.4,15.3-5.5L62.6,61.8z M39.4,88c-1.5-0.4-2.8-0.9-3.8-1.5l1.1-21.7c0.9,0.4,1.8,0.7,2.9,1L39.4,88z"/>
		<path class="st1" d="M59.2,57V41.6h-5.4L48.5,56h-0.1l-5.1-14.4h-5.4v15.2c0.9,0.3,2,0.6,3.2,0.8L41,46.8l4.3,11.3
			c1.1,0.1,2.3,0.1,3.6,0.1c0.8,0,1.6,0,2.3-0.1l4.7-11.3l-0.1,10.9C57.2,57.5,58.3,57.3,59.2,57z"/>
		<path class="st1" d="M63.1,50v3.6c0.8,0.5,1.3,1.1,1.3,1.7c0,2.2-7.1,4-15.7,4c-8.6,0-15.4-1.8-15.4-4c0-0.6,0.9-1.2,1.7-1.7V50
			c-8,1.2-11.1,3.1-11.1,5.3c0,3.6,11,6.5,24.8,6.5s25.1-2.9,25.1-6.5C73.8,53.1,69.5,51.2,63.1,50z"/>
		<g>
			<path class="st1" d="M100.6,67.7L100.6,67.7L100.6,67.7L68.5,35.3l0,0l-9.7-9.8c-0.2-0.2-0.5-0.3-0.8-0.3s-0.6,0.1-0.8,0.3
				l-1.6,1.6c-0.4,0.5-0.4,1.2,0,1.6l9.7,9.8l32.1,32.3l0.1,0.1c0.2,0.2,0.5,0.3,0.8,0.3c0.3,0,0.6-0.1,0.8-0.3l1.6-1.6
				C101.1,68.9,101.1,68.2,100.6,67.7z M56.4,27.8l1.6-1.6l9.7,9.8l-1.6,1.5L56.4,27.8z"/>
		</g>
		<polygon class="st1" points="53,35.3 49.8,35.3 49.8,32.1 47.8,32.1 47.8,35.3 44.6,35.3 44.6,37.4 47.8,37.4 47.8,40.5 
			49.8,40.5 49.8,37.4 53,37.4 		"/>
		<polygon class="st1" points="56.7,14.5 53.6,14.5 53.6,11.3 51.5,11.3 51.5,14.5 48.3,14.5 48.3,16.6 51.5,16.6 51.5,19.8 
			53.6,19.8 53.6,16.6 56.7,16.6 		"/>
		<g>
			<g>
				<rect x="69.6" y="24.1" class="st1" width="8.4" height="2.1"/>
			</g>
		</g>
	</g>
	<g>
		<g>
			<path class="st0" d="M217.5,33.7l0-28l6.5,0l0,28H217.5z"/>
			<path class="st0" d="M238.7,29.2c1,0,3.3-0.2,3.3-0.7v4.3c0,0.6-2.9,1-5,1c-2.3,0-3.9-0.6-5-1.8c-1.1-1.2-1.5-2.9-1.5-5.3l0-9.6
				h-3.3v-3.2l3.5-2.1l2-4.6l4.3,0v4.9l4.9,0v4.9l-4.9,0l0,9.6c0,0.8-0.2,1.4,0.2,1.8C237.8,29,238,29.2,238.7,29.2z"/>
			<path class="st0" d="M251.6,5.7l0.3,0.6c-0.6,2.5-1.7,6-3.3,9.3l-4.1,0c0.9-4.9,1.5-6.6,1.9-9.9L251.6,5.7z"/>
			<path class="st0" d="M270.1,27.2c0,2.2-0.8,3.8-2.3,5c-1.5,1.1-3.8,1.7-6.8,1.7c-1.5,0-3.2-0.1-4.2-0.3c-1.1-0.2-1.7-0.5-3.4-0.9
				v-4.8c1.6,0.5,2.6,0.9,3.9,1.3c1.3,0.3,2.7,0.5,3.7,0.5c2.1,0,3.2-0.6,3.2-1.8c0-0.5-0.1-0.8-0.4-1.1c-0.3-0.3-0.7-0.6-1.4-1
				c-0.7-0.4-1.6-0.8-2.7-1.3c-1.6-0.7-2.8-1.3-3.6-1.9c-0.8-0.6-1.3-1.3-1.7-2s-0.5-1.7-0.5-2.8c0-1.9,0.7-3.4,2.2-4.4
				c1.5-1,3.5-1.6,6.2-1.6c2.5,0,5,0.6,7.4,1.7l-1.7,4.2c-1.1-0.5-2-0.8-3-1.1c-0.9-0.3-1.9-0.4-2.8-0.4c-1.7,0-2.6,0.5-2.6,1.4
				c0,0.5,0.3,1,0.8,1.4c0.5,0.4,1.7,0.9,3.6,1.7c1.7,0.7,2.9,1.3,3.6,1.9c0.8,0.6,1.3,1.3,1.7,2C269.9,25.2,270.1,26.1,270.1,27.2z
				"/>
		</g>
		<g>
			<path class="st2" d="M152.1,85.8l-10.6-37.5h-0.3c0.5,6.4,0.7,11.4,0.7,14.9v22.6l-12.4,0l0-52.1l18.6,0l10.8,37h0.3l10.6-37
				l18.6,0l0,52.1l-12.8,0l0-22.8c0-1.2,0-2.5,0.1-4s0.2-5,0.5-10.7h-0.3l-10.4,37.4L152.1,85.8z"/>
			<path class="st2" d="M224.9,85.8l-2.7-5.3H222c-1.9,2.3-3.8,3.9-5.7,4.8c-1.9,0.9-4.4,1.3-7.5,1.3c-3.8,0-6.7-1.1-8.9-3.4
				s-3.3-5.5-3.3-9.6c0-4.3,1.5-7.5,4.5-9.6c3-2.1,7.3-3.3,12.9-3.5l6.7-0.2v-0.6c0-3.3-1.6-5-4.9-5c-2.9,0-6.6,1-11.1,3l-4-9.2
				c4.7-2.4,10.6-3.6,17.7-3.6c5.1,0,9.1,1.3,11.9,3.8c2.8,2.6,4.2,6.1,4.2,10.8v26.5H224.9z M214.6,76.7c1.7,0,3.1-0.5,4.3-1.6
				c1.2-1.1,1.8-2.5,1.8-4.2v-3.1l-3.2,0.1c-4.5,0.2-6.8,1.9-6.8,5.1C210.7,75.5,212,76.7,214.6,76.7z"/>
			<path class="st2" d="M281.7,45.5v6.7l-5.5,2c0.8,1.4,1.1,3,1.1,4.8c0,4.3-1.5,7.7-4.5,10.1c-3,2.4-7.5,3.6-13.6,3.6
				c-1.5,0-2.7-0.1-3.5-0.3c-0.3,0.6-0.5,1.2-0.5,1.7c0,0.7,0.6,1.2,1.7,1.6c1.1,0.4,2.6,0.6,4.3,0.6h6.6c9,0,13.5,3.8,13.5,11.4
				c0,4.9-2.1,8.7-6.2,11.5c-4.2,2.7-10,4.1-17.5,4.1c-5.7,0-10.1-1-13.1-2.9c-3.1-1.9-4.6-4.7-4.6-8.2c0-4.8,3-7.9,8.9-9.3
				c-1.2-0.5-2.3-1.4-3.2-2.5s-1.4-2.3-1.4-3.5c0-1.3,0.3-2.4,1-3.3s2.1-2.1,4.3-3.4c-2.1-0.9-3.7-2.4-4.9-4.3
				c-1.2-2-1.8-4.4-1.8-7.2c0-4.4,1.5-7.8,4.5-10.2c3-2.4,7.2-3.6,12.7-3.6c0.7,0,2,0.1,3.8,0.2c1.8,0.2,3.1,0.3,4,0.5L281.7,45.5z
				 M251.5,90.8c0,1.1,0.6,2.1,1.8,2.8c1.2,0.7,2.9,1.1,4.9,1.1c3.3,0,6-0.4,8-1.3c2-0.8,3-1.9,3-3.3c0-1.1-0.6-1.8-1.8-2.3
				s-3-0.7-5.3-0.7h-5.4c-1.5,0-2.7,0.3-3.8,1.1C252,89,251.5,89.8,251.5,90.8z M255.8,58.7c0,4.1,1.4,6.2,4.3,6.2
				c1.3,0,2.3-0.5,3.1-1.5c0.7-1,1.1-2.6,1.1-4.6c0-4.2-1.4-6.3-4.1-6.3C257.3,52.5,255.8,54.6,255.8,58.7z"/>
			<path class="st2" d="M287.5,35.4c0-2.1,0.6-3.6,1.7-4.7c1.2-1,3-1.5,5.6-1.5c2.6,0,4.4,0.5,5.6,1.6c1.2,1,1.8,2.6,1.8,4.6
				c0,4.1-2.5,6.1-7.4,6.1C289.9,41.6,287.5,39.5,287.5,35.4z M301.6,85.8h-13.8V45.5l13.8,0V85.8z"/>
			<path class="st2" d="M330.9,75.5c1.9,0,4.1-0.5,6.7-1.4v10.2c-1.9,0.8-3.6,1.4-5.3,1.7c-1.7,0.3-3.7,0.5-5.9,0.5
				c-4.6,0-8-1.1-10-3.4c-2.1-2.3-3.1-5.8-3.1-10.6V55.9l-4.8,0v-5.7l6.2-4.4l3.6-8.5l9.1,0v8.1l9.8,0v10.4h-9.8v15.7
				C327.2,74.2,328.4,75.5,330.9,75.5z"/>
			<path class="st2" d="M356.2,67.4l-11.7,0l-1.8-33.7l15.3,0L356.2,67.4z M342.9,79.9c0-2.2,0.6-3.8,1.9-5c1.3-1.2,3.1-1.8,5.6-1.8
				c2.4,0,4.2,0.6,5.5,1.8c1.2,1.2,1.9,2.9,1.9,5c0,2.1-0.6,3.8-1.9,5c-1.3,1.2-3.1,1.8-5.4,1.8c-2.3,0-4.2-0.6-5.5-1.8
				C343.5,83.7,342.9,82,342.9,79.9z"/>
		</g>
	</g>
</g>
</svg>
