<?xml version="1.0" encoding="utf-8"?>
<!-- Generator: Adobe Illustrator 20.1.0, SVG Export Plug-In . SVG Version: 6.00 Build 0)  -->
<svg version="1.1" id="Layer_1" xmlns="http://www.w3.org/2000/svg" xmlns:xlink="http://www.w3.org/1999/xlink" x="0px" y="0px"
	 viewBox="0 0 80 80" style="enable-background:new 0 0 80 80;" xml:space="preserve">
<style type="text/css">
	.st0{fill:#E54A24;}
	.st1{fill:#FFFFFF;}
</style>
<g>
	<path class="st0" d="M32.2,76.8l-29-29c-4.3-4.3-4.3-11.2,0-15.5l29-29c4.3-4.3,11.2-4.3,15.5,0l29,29c4.3,4.3,4.3,11.2,0,15.5
		l-29,29C43.5,81.1,36.5,81.1,32.2,76.8z"/>
	<g>
		<path class="st1" d="M42.7,43.1c-1.6,1.3-5.3,2.3-9.6,2.3c-4.3,0-8-0.9-9.6-2.3l-0.9,16c0,2.1,4.7,3.7,10.5,3.7
			c5.8,0,10.5-1.6,10.5-3.7L42.7,43.1z M26.9,60.8c-1-0.3-1.9-0.6-2.6-1L25,45.1c0.6,0.3,1.3,0.5,2,0.7L26.9,60.8z"/>
		<path class="st1" d="M28.1,40.2L28,32.9l3,7.6c0.8,0,1.6,0.1,2.4,0.1c0.5,0,1.1,0,1.6,0l3.2-7.7l0,7.4c0.9-0.1,1.6-0.3,2.3-0.5
			V29.4h-3.7l-3.7,9.7H33l-3.5-9.7h-3.7v7.9v2.4C26.5,39.9,27.2,40.1,28.1,40.2z"/>
		<path class="st1" d="M43.1,35.1v2.4c0.5,0.4,0.9,0.8,0.9,1.2c0,1.5-4.8,2.7-10.7,2.7c-5.9,0-10.5-1.2-10.5-2.7
			c0-0.4,0.6-0.8,1.1-1.2v-2.4c-5.5,0.8-7.6,2.1-7.6,3.6c0,2.4,7.5,4.4,16.9,4.4s17.2-2,17.2-4.4C50.4,37.2,47.5,35.9,43.1,35.1z"/>
		<g>
			<path class="st1" d="M68.7,45.9L68.7,45.9L68.7,45.9L46.8,24l0,0l-6.6-6.6c-0.2-0.2-0.4-0.2-0.6-0.2s-0.4,0.1-0.6,0.2L38,18.4
				c-0.3,0.3-0.3,0.8,0,1.1l6.6,6.6L66.5,48l0.1,0.1c0.2,0.2,0.4,0.2,0.6,0.2c0.2,0,0.4-0.1,0.6-0.2l1.1-1.1
				C69,46.7,69,46.2,68.7,45.9z M38.5,18.9l1.1-1.1l6.6,6.7l-1.1,1L38.5,18.9z"/>
		</g>
		<polygon class="st1" points="36.8,23.8 34.2,23.8 34.2,21.2 32.5,21.2 32.5,23.8 29.9,23.8 29.9,25.5 32.5,25.5 32.5,28.1 
			34.2,28.1 34.2,25.5 36.8,25.5 		"/>
		<polygon class="st1" points="39.3,9.7 36.7,9.7 36.7,7.1 35,7.1 35,9.7 32.4,9.7 32.4,11.4 35,11.4 35,14 36.7,14 36.7,11.4 
			39.3,11.4 		"/>
		<g>
			<g>
				<rect x="46.9" y="16.2" class="st1" width="6.9" height="1.7"/>
			</g>
		</g>
	</g>
</g>
</svg>
