<?xml version="1.0" encoding="utf-8"?>
<!-- Generator: Adobe Illustrator 20.1.0, SVG Export Plug-In . SVG Version: 6.00 Build 0)  -->
<svg version="1.1" id="Layer_1" xmlns="http://www.w3.org/2000/svg" xmlns:xlink="http://www.w3.org/1999/xlink" x="0px" y="0px"
	 viewBox="0 0 242 80" style="enable-background:new 0 0 242 80;" xml:space="preserve">
<style type="text/css">
	.st0{fill:#E54A24;}
	.st1{fill:#FFFFFF;}
	.st2{fill:#282F3D;}
</style>
<g>
	<g>
		<path class="st0" d="M32,76.8l-28.8-29c-4.3-4.3-4.3-11.2,0-15.5L32,3.2c4.3-4.3,11.2-4.3,15.4,0l28.8,29c4.3,4.3,4.3,11.2,0,15.5
			l-28.8,29C43.2,81.1,36.2,81.1,32,76.8z"/>
		<path class="st1" d="M42.4,41.9c-1.6,1.3-5.3,2.3-9.5,2.3c-4.3,0-7.9-0.9-9.5-2.3l-0.9,16c0,2.1,4.6,3.7,10.4,3.7
			c5.7,0,10.4-1.6,10.4-3.7L42.4,41.9z M26.7,59.7c-1-0.3-1.9-0.6-2.6-1L24.9,44c0.6,0.3,1.3,0.5,2,0.7L26.7,59.7z"/>
		<path class="st1" d="M40.2,38.7V28.2h-3.6L32.9,38h-0.1l-3.5-9.7h-3.7v10.3c0.6,0.2,1.3,0.4,2.2,0.5l-0.1-7.3l2.9,7.6
			c0.8,0,1.6,0.1,2.4,0.1c0.5,0,1.1,0,1.6,0l3.2-7.7l0,7.4C38.7,39,39.5,38.9,40.2,38.7z"/>
		<path class="st1" d="M42.8,33.9v2.4c0.5,0.4,0.9,0.8,0.9,1.2c0,1.5-4.8,2.7-10.6,2.7c-5.8,0-10.4-1.2-10.4-2.7
			c0-0.4,0.6-0.8,1.1-1.2v-2.4c-5.5,0.8-7.5,2.1-7.5,3.6c0,2.4,7.5,4.4,16.8,4.4s17-2,17-4.4C50,36,47.1,34.7,42.8,33.9z"/>
		<g>
			<path class="st1" d="M68.2,45.9L68.2,45.9L68.2,45.9L46.4,24l0,0l-6.6-6.6c-0.2-0.2-0.4-0.2-0.6-0.2s-0.4,0.1-0.6,0.2l-1.1,1.1
				c-0.3,0.3-0.3,0.8,0,1.1l6.6,6.6L66,48l0.1,0.1c0.2,0.2,0.4,0.2,0.6,0.2c0.2,0,0.4-0.1,0.6-0.2l1.1-1.1
				C68.5,46.7,68.5,46.2,68.2,45.9z M38.3,18.9l1.1-1.1l6.6,6.7l-1.1,1L38.3,18.9z"/>
		</g>
		<polygon class="st1" points="35.9,23.9 33.8,23.9 33.8,21.8 32.4,21.8 32.4,23.9 30.2,23.9 30.2,25.3 32.4,25.3 32.4,27.5 
			33.8,27.5 33.8,25.3 35.9,25.3 		"/>
		<polygon class="st1" points="38.4,9.8 36.3,9.8 36.3,7.7 34.9,7.7 34.9,9.8 32.8,9.8 32.8,11.2 34.9,11.2 34.9,13.4 36.3,13.4 
			36.3,11.2 38.4,11.2 		"/>
		<g>
			<g>
				<rect x="47.2" y="16.3" class="st1" width="5.7" height="1.4"/>
			</g>
		</g>
	</g>
	<g>
		<g>
			<path class="st0" d="M147,23L147,4l4.4,0V23H147z"/>
			<path class="st0" d="M161.3,19.9c0.7,0,2.2-0.2,2.2-0.5v2.9c0,0.4-2,0.7-3.4,0.7c-1.6,0-2.6-0.4-3.4-1.2c-0.7-0.8-1-2-1-3.6v-6.5
				l-2.2,0V9.7l2.4-1.4l1.4-3.1l2.9,0v3.3l3.3,0v3.3l-3.3,0v6.5c0,0.6-0.2,1,0.2,1.2C160.7,19.8,160.8,19.9,161.3,19.9z"/>
			<path class="st0" d="M170,4l0.2,0.4c-0.4,1.7-1.2,4.1-2.3,6.3h-2.8c0.6-3.3,1-4.5,1.3-6.7L170,4z"/>
			<path class="st0" d="M182.5,18.5c0,1.5-0.5,2.6-1.5,3.4c-1,0.8-2.5,1.2-4.6,1.2c-1,0-2.1-0.1-2.9-0.2c-0.7-0.1-1.2-0.4-2.3-0.6
				V19c1.1,0.3,1.8,0.6,2.7,0.9c0.9,0.2,1.8,0.3,2.5,0.3c1.4,0,2.2-0.4,2.2-1.2c0-0.3-0.1-0.6-0.3-0.8c-0.2-0.2-0.5-0.4-1-0.7
				c-0.5-0.2-1.1-0.5-1.8-0.9c-1.1-0.5-1.9-0.9-2.4-1.3c-0.5-0.4-0.9-0.8-1.1-1.4c-0.2-0.5-0.4-1.1-0.4-1.9c0-1.3,0.5-2.3,1.5-3
				c1-0.7,2.4-1.1,4.2-1.1c1.7,0,3.4,0.4,5,1.1l-1.2,2.8c-0.7-0.3-1.4-0.6-2-0.8c-0.6-0.2-1.3-0.3-1.9-0.3c-1.2,0-1.7,0.3-1.7,0.9
				c0,0.4,0.2,0.7,0.6,0.9c0.4,0.3,1.2,0.6,2.4,1.1c1.1,0.5,1.9,0.9,2.5,1.3c0.5,0.4,0.9,0.9,1.2,1.4
				C182.4,17.2,182.5,17.8,182.5,18.5z"/>
		</g>
		<g>
			<path class="st2" d="M102.7,58.2l-7.1-25.4h-0.2c0.3,4.3,0.5,7.7,0.5,10.1v15.3h-8.4l0-35.2l12.6,0l7.3,25h0.2l7.1-25l12.6,0
				l0,35.2l-8.7,0V42.8c0-0.8,0-1.7,0-2.7s0.1-3.4,0.3-7.2h-0.2l-7.1,25.3L102.7,58.2z"/>
			<path class="st2" d="M152,58.2l-1.8-3.6H150c-1.3,1.6-2.5,2.7-3.8,3.2c-1.3,0.6-3,0.9-5.1,0.9c-2.6,0-4.6-0.8-6-2.3
				c-1.5-1.5-2.2-3.7-2.2-6.5c0-2.9,1-5.1,3-6.5c2-1.4,4.9-2.2,8.7-2.4l4.5-0.1v-0.4c0-2.2-1.1-3.4-3.3-3.4c-2,0-4.5,0.7-7.5,2
				l-2.7-6.2c3.2-1.6,7.1-2.5,12-2.5c3.5,0,6.2,0.9,8.1,2.6c1.9,1.7,2.9,4.2,2.9,7.3v17.9H152z M145,52c1.1,0,2.1-0.4,2.9-1.1
				c0.8-0.7,1.2-1.7,1.2-2.8V46l-2.2,0.1c-3.1,0.1-4.6,1.3-4.6,3.4C142.4,51.2,143.3,52,145,52z"/>
			<path class="st2" d="M190.4,30.9v4.6l-3.7,1.4c0.5,0.9,0.8,2,0.8,3.3c0,2.9-1,5.2-3.1,6.8c-2,1.6-5.1,2.4-9.2,2.4
				c-1,0-1.8-0.1-2.4-0.2c-0.2,0.4-0.3,0.8-0.3,1.2c0,0.5,0.4,0.8,1.1,1.1c0.7,0.2,1.7,0.4,2.9,0.4h4.5c6.1,0,9.1,2.6,9.1,7.7
				c0,3.3-1.4,5.9-4.2,7.8c-2.8,1.8-6.8,2.8-11.8,2.8c-3.8,0-6.8-0.6-8.9-1.9c-2.1-1.3-3.1-3.2-3.1-5.6c0-3.3,2-5.4,6-6.3
				c-0.8-0.4-1.6-0.9-2.2-1.7S165,53,165,52.2c0-0.9,0.2-1.6,0.7-2.3c0.5-0.7,1.4-1.4,2.9-2.3c-1.4-0.6-2.5-1.6-3.3-2.9
				c-0.8-1.3-1.2-3-1.2-4.9c0-3,1-5.3,3-6.9c2-1.6,4.9-2.5,8.6-2.5c0.5,0,1.3,0.1,2.6,0.2c1.2,0.1,2.1,0.2,2.7,0.3L190.4,30.9z
				 M169.9,61.6c0,0.8,0.4,1.4,1.2,1.9c0.8,0.5,1.9,0.7,3.3,0.7c2.3,0,4.1-0.3,5.4-0.9c1.4-0.6,2-1.3,2-2.2c0-0.7-0.4-1.2-1.2-1.5
				c-0.8-0.3-2-0.4-3.6-0.4h-3.7c-1,0-1.9,0.2-2.5,0.7C170.3,60.3,169.9,60.9,169.9,61.6z M172.9,39.9c0,2.8,1,4.2,2.9,4.2
				c0.9,0,1.6-0.3,2.1-1c0.5-0.7,0.7-1.7,0.7-3.1c0-2.8-0.9-4.2-2.8-4.2C173.9,35.7,172.9,37.1,172.9,39.9z"/>
			<path class="st2" d="M194.3,24.1c0-1.4,0.4-2.5,1.2-3.2c0.8-0.7,2-1,3.8-1c1.7,0,3,0.4,3.8,1.1c0.8,0.7,1.2,1.8,1.2,3.1
				c0,2.8-1.7,4.1-5,4.1C195.9,28.3,194.3,26.9,194.3,24.1z M203.9,58.2l-9.4,0l0-27.3l9.4,0L203.9,58.2z"/>
			<path class="st2" d="M223.7,51.3c1.3,0,2.8-0.3,4.5-0.9v6.9c-1.3,0.5-2.5,0.9-3.6,1.2c-1.1,0.2-2.5,0.3-4,0.3
				c-3.1,0-5.4-0.8-6.8-2.3c-1.4-1.5-2.1-3.9-2.1-7.1V38h-3.3v-3.8l4.2-3l2.4-5.7l6.1,0v5.5l6.6,0V38l-6.6,0v10.6
				C221.1,50.4,222,51.3,223.7,51.3z"/>
			<path class="st2" d="M240.8,45.8l-7.9,0L231.7,23l10.3,0L240.8,45.8z M231.8,54.2c0-1.5,0.4-2.6,1.3-3.4c0.9-0.8,2.1-1.2,3.8-1.2
				c1.6,0,2.9,0.4,3.7,1.2c0.8,0.8,1.3,1.9,1.3,3.4c0,1.4-0.4,2.6-1.3,3.4c-0.9,0.8-2.1,1.2-3.6,1.2c-1.6,0-2.8-0.4-3.7-1.2
				C232.2,56.8,231.8,55.7,231.8,54.2z"/>
		</g>
	</g>
</g>
</svg>
