<?xml version="1.0" encoding="utf-8"?>
<!-- Generator: Adobe Illustrator 20.1.0, SVG Export Plug-In . SVG Version: 6.00 Build 0)  -->
<svg version="1.1" id="Layer_1" xmlns="http://www.w3.org/2000/svg" xmlns:xlink="http://www.w3.org/1999/xlink" x="0px" y="0px"
	 viewBox="0 0 68 68" style="enable-background:new 0 0 68 68;" xml:space="preserve">
<style type="text/css">
	.st0{fill:#E54A24;}
	.st1{fill:#FFFFFF;}
</style>
<g>
	<path class="st0" d="M27.4,65.3L2.7,40.6c-3.6-3.6-3.6-9.6,0-13.2L27.4,2.7c3.6-3.6,9.6-3.6,13.2,0l24.7,24.7
		c3.6,3.6,3.6,9.6,0,13.2L40.6,65.3C37,68.9,31,68.9,27.4,65.3z"/>
	<g>
		<path class="st1" d="M36.3,36.6c-1.4,1.1-4.5,1.9-8.1,1.9c-3.6,0-6.8-0.8-8.1-1.9l-0.7,13.6c0,1.8,4,3.2,8.9,3.2
			c4.9,0,8.9-1.4,8.9-3.2L36.3,36.6z M22.9,51.7c-0.9-0.2-1.6-0.5-2.2-0.8l0.6-12.5c0.5,0.2,1.1,0.4,1.7,0.6L22.9,51.7z"/>
		<path class="st1" d="M23.9,34.2l0-6.2l2.5,6.5c0.7,0,1.3,0.1,2.1,0.1c0.5,0,0.9,0,1.4,0l2.7-6.5l0,6.3c0.7-0.1,1.4-0.2,1.9-0.4V25
			h-3.1l-3.1,8.3h-0.1l-3-8.3H22v6.7v2C22.5,33.9,23.1,34.1,23.9,34.2z"/>
		<path class="st1" d="M36.6,29.8v2.1c0.5,0.3,0.7,0.6,0.7,1c0,1.3-4.1,2.3-9.1,2.3c-5,0-8.9-1-8.9-2.3c0-0.4,0.5-0.7,1-1v-2.1
			c-4.7,0.7-6.4,1.8-6.4,3.1c0,2.1,6.4,3.7,14.4,3.7s14.6-1.7,14.6-3.7C42.8,31.6,40.4,30.5,36.6,29.8z"/>
		<g>
			<path class="st1" d="M58.4,39L58.4,39L58.4,39L39.8,20.4l0,0l-5.6-5.6c-0.1-0.1-0.3-0.2-0.5-0.2s-0.3,0.1-0.5,0.2l-0.9,0.9
				c-0.3,0.3-0.3,0.7,0,0.9l5.6,5.6l18.6,18.6l0,0c0.1,0.1,0.3,0.2,0.5,0.2c0.2,0,0.3-0.1,0.5-0.2l0.9-0.9
				C58.7,39.7,58.7,39.3,58.4,39z M32.8,16l0.9-0.9l5.6,5.7l-0.9,0.9L32.8,16z"/>
		</g>
		<polygon class="st1" points="31.3,20.2 29.1,20.2 29.1,18 27.6,18 27.6,20.2 25.4,20.2 25.4,21.7 27.6,21.7 27.6,23.9 29.1,23.9 
			29.1,21.7 31.3,21.7 		"/>
		<polygon class="st1" points="33.4,8.2 31.2,8.2 31.2,6 29.8,6 29.8,8.2 27.6,8.2 27.6,9.7 29.8,9.7 29.8,11.9 31.2,11.9 31.2,9.7 
			33.4,9.7 		"/>
		<g>
			<g>
				<rect x="39.9" y="13.8" class="st1" width="5.9" height="1.5"/>
			</g>
		</g>
	</g>
</g>
</svg>
