<?xml version="1.0" encoding="utf-8"?>
<!-- Generator: Adobe Illustrator 20.1.0, SVG Export Plug-In . SVG Version: 6.00 Build 0)  -->
<svg version="1.1" id="Layer_1" xmlns="http://www.w3.org/2000/svg" xmlns:xlink="http://www.w3.org/1999/xlink" x="0px" y="0px"
	 viewBox="0 0 16 16" style="enable-background:new 0 0 16 16;" xml:space="preserve">
<style type="text/css">
	.st0{fill:#E54A24;}
	.st1{fill:#FFFFFF;}
</style>
<g>
	<path class="st0" d="M6.4,15.4L0.6,9.6c-0.9-0.9-0.9-2.2,0-3.1l5.8-5.8c0.9-0.9,2.2-0.9,3.1,0l5.8,5.8c0.9,0.9,0.9,2.2,0,3.1
		l-5.8,5.8C8.7,16.2,7.3,16.2,6.4,15.4z"/>
	<g>
		<path class="st1" d="M15.2,14.3l-3.8-3.8l0,0L8.7,7.9C8.7,7.8,8.6,7.8,8.5,7.8s-0.2,0-0.2,0.1L7.9,8.3c-0.1,0.1-0.1,0.3,0,0.4
			l2.7,2.7l3.8,3.8c0,0,0.2,0.1,0.2,0.1c0.1,0,0.2,0,0.2-0.1l0.4-0.4C15.3,14.6,15.3,14.4,15.2,14.3z"/>
		<path class="st0" d="M8.5,7.8c0.1,0,0.2,0,0.2,0.1l2.7,2.7l3.8,3.8c0.1,0.1,0.1,0.3,0,0.4l-0.4,0.4c-0.1,0.1-0.1,0.1-0.2,0.1
			c-0.1,0-0.2-0.1-0.2-0.1l-3.8-3.8L7.9,8.7c-0.1-0.1-0.1-0.3,0-0.4l0.4-0.4C8.4,7.8,8.4,7.8,8.5,7.8 M9.5,9.9l0.4-0.4L8.5,8.1
			L8.1,8.5L9.5,9.9z M8.5,7.1C8.3,7.1,8,7.2,7.8,7.4L7.4,7.8C7,8.2,7,8.8,7.4,9.2l2.7,2.7l3.8,3.8l0,0l0,0c0.2,0.2,0.4,0.2,0.6,0.2
			c0.3,0,0.5-0.1,0.7-0.3l0.4-0.4c0.2-0.2,0.3-0.4,0.3-0.7c0-0.3-0.1-0.5-0.3-0.7l-3.9-3.9L9.2,7.4C9,7.2,8.8,7.1,8.5,7.1L8.5,7.1z"
			/>
	</g>
	<polygon class="st1" points="7,10.1 6,10.1 6,9 5.3,9 5.3,10.1 4.2,10.1 4.2,10.8 5.3,10.8 5.3,11.8 6,11.8 6,10.8 7,10.8 	"/>
	<polygon class="st1" points="8,4.1 7,4.1 7,3.1 6.3,3.1 6.3,4.1 5.2,4.1 5.2,4.8 6.3,4.8 6.3,5.9 7,5.9 7,4.8 8,4.8 	"/>
	<rect x="10.2" y="6.1" class="st1" width="2.8" height="0.7"/>
</g>
</svg>
